<?xml version="1.0" encoding="UTF-8"?>
<svg width="212px" height="212px" viewBox="0 0 212 212" version="1.1" xmlns="http://www.w3.org/2000/svg" xmlns:xlink="http://www.w3.org/1999/xlink">
    <title>Combined Shape</title>
    <g id="contoso" stroke="none" stroke-width="1" fill="none" fill-rule="evenodd">
        <g fill="#7DF3E1" id="Combined-Shape">
            <path d="M106,0 C164.542183,0 212,47.4578165 212,106 C212,164.542183 164.542183,212 106,212 C47.4578165,212 0,164.542183 0,106 C0,47.4578165 47.4578165,0 106,0 Z M169.398526,116.894091 C167.636228,123.357663 165.009726,129.695716 161.502558,135.770309 C139.549239,173.794572 90.9278023,186.822647 52.9035387,164.869328 C46.8345736,161.36541 41.3780522,157.178783 36.621347,152.470021 C42.348612,165.643045 52.1952375,177.162096 65.5900722,184.895608 C98.8314095,204.087503 141.336943,192.69818 160.528838,159.456842 C168.257195,146.070935 171.02051,131.153122 169.398526,116.894091 Z M100.009939,25.254105 C85.7381325,23.6275497 70.839029,26.3954521 57.4441943,34.1289634 C24.202857,53.3208585 12.8135337,95.8263917 32.0054288,129.067729 C39.7337861,142.453637 51.2713332,152.305643 64.4310083,158.03048 C59.7145396,153.272499 55.5388762,147.828856 52.0317082,141.754262 C30.0783894,103.729999 43.1064642,55.1085617 81.1307278,33.1552429 C87.1996929,29.6513242 93.5536791,27.0191517 100.009939,25.254105 Z M106,61 C81.1471863,61 61,81.1471863 61,106 C61,130.852814 81.1471863,151 106,151 C130.852814,151 151,130.852814 151,106 C151,81.1471863 130.852814,61 106,61 Z M125.5,34 C110.043285,34 95.7424236,39.0658055 84.2047318,47.6 C90.6834986,45.8944087 97.4856641,45 104.5,45 C148.406638,45 184,80.5933624 184,124.5 C184,131.507837 183.102535,138.326637 181.402981,144.800445 C189.947522,133.253976 195,118.967023 195,103.5 C195,65.1162099 163.88379,34 125.5,34 Z"></path>
        </g>
    </g>
</svg>