<?xml version="1.0" encoding="UTF-8"?>
<svg width="24px" height="24px" viewBox="0 0 24 24" version="1.1" xmlns="http://www.w3.org/2000/svg" xmlns:xlink="http://www.w3.org/1999/xlink">
    <title>codespaces</title>
    <defs>
        <linearGradient x1="50.0000484%" y1="-3.91645412e-07%" x2="50.0000484%" y2="99.999921%" id="linearGradient-1">
            <stop stop-color="#FFFFFF" offset="0%"></stop>
            <stop stop-color="#FFFFFF" stop-opacity="0" offset="100%"></stop>
        </linearGradient>
    </defs>
    <g id="codespaces" stroke="none" stroke-width="1" fill="none" fill-rule="evenodd">
        <path d="M4.34987985,11.4597323 C4.3354709,10.2608392 4.77550576,9.10105152 5.58130821,8.21415212 C5.46214095,7.91360997 5.04503055,6.67146074 5.70047548,5.00862751 C5.70047548,5.00862751 6.71344717,4.68805755 8.99752803,6.25077674 C9.97533888,5.98593959 10.9837407,5.85119569 11.9966874,5.85007053 C13.0096591,5.85119569 14.0180359,5.98593959 14.9958467,6.25077674 C17.2799526,4.68805755 18.2928993,5.00862751 18.2928993,5.00862751 C18.9483692,6.67146074 18.5312588,7.91360997 18.4120666,8.21415212 C18.8730281,8.71227199 19.2168951,9.30725544 19.4185455,9.95559638 C19.727826,9.72513905 20.1031579,9.60087162 20.4886785,9.60132169 C20.7612,9.60169674 21.0301254,9.66350541 21.2755271,9.78214705 L22.9756584,10.6053875 C23.071127,10.651344 23.1773837,10.6700716 23.2827913,10.6594951 C23.3881739,10.6489186 23.488612,10.6094881 23.5730679,10.5454791 C23.6575488,10.4814951 23.7227512,10.3954581 23.761583,10.2967692 C23.8003897,10.1981054 23.8112776,10.0906153 23.7930729,9.98615066 C23.3159793,7.1973095 21.8711886,4.66655453 19.7132173,2.8397483 C17.5552459,1.01292207 14.8225648,0.00728342158 11.9966874,0 C10.4150241,0.0044730774 8.84976761,0.321172548 7.39049304,0.93197822 C5.93121846,1.54278139 4.60654396,2.43570163 3.49228509,3.55964928 C2.37802621,4.68358192 1.49604861,6.01649388 0.896823565,7.48207444 C0.297601014,8.94768001 -0.00711068032,10.5172001 0,12.1008223 C-0.00558265732,14.6334025 0.783100236,17.103874 2.25488837,19.1635879 C3.72667401,21.2233268 5.80725654,22.7683185 8.20306295,23.5805824 C8.79889927,23.7007993 9.01740588,23.3201459 9.01740588,22.9995759 C9.01740588,22.7191116 8.99752803,21.7574517 8.99752803,20.7557112 C5.66074473,21.4769624 4.96559403,19.3132339 4.96559403,19.3132339 C4.42931637,17.9108122 3.63485129,17.5502116 3.63485129,17.5502116 C2.54241811,16.8089326 3.71428781,16.8089326 3.71428781,16.8089326 C4.92586328,16.8890689 5.56143035,18.0510819 5.56143035,18.0510819 C6.63396071,19.8942404 8.36196096,19.3733423 9.05713663,19.0527724 C9.10710597,18.4389613 9.37483276,17.8633305 9.81189594,17.4300197 C7.15038548,17.1495054 4.34987985,16.1077343 4.34987985,11.4597323 Z" id="Path" fill="#FFFFFF" fill-rule="nonzero"></path>
        <path d="M23.5446946,11.9877769 L20.8474048,10.6922316 C20.5352173,10.5422728 20.1620753,10.6055287 19.9170298,10.8499573 L11.0870433,18.8812557 C10.8495389,19.0972911 10.849812,19.4702902 11.0876324,19.6859686 L11.8088939,20.3400432 C12.0033246,20.5163914 12.2961366,20.5293484 12.5054735,20.3709564 L23.1388253,12.3238739 C23.4955525,12.0539087 24.0079389,12.3077236 24.0079389,12.7544042 L24.0079389,12.7231645 C24.0079389,12.4096199 23.8278878,12.123795 23.5446946,11.9877769 Z" id="Path" fill="#0065A9" fill-rule="nonzero"></path>
        <path d="M23.5446946,22.2270757 L20.8474048,23.5226251 C20.5352173,23.6725491 20.1620753,23.6092943 19.9170298,23.3648963 L11.0870433,15.3335918 C10.8495389,15.1175717 10.849812,14.7445573 11.0876324,14.528884 L11.8088939,13.8747839 C12.0033246,13.6984612 12.2961366,13.6854787 12.5054735,13.8439064 L23.1388253,21.8909582 C23.4955525,22.1609133 24.0079389,21.907129 24.0079389,21.4604178 L24.0079389,21.491688 C24.0079389,21.8052072 23.8278878,22.0910269 23.5446946,22.2270757 Z" id="Path" fill="#007ACC" fill-rule="nonzero"></path>
        <path d="M20.8389497,23.5236651 C20.5266599,23.673487 20.1535178,23.6101813 19.9084724,23.3657322 C20.2103815,23.6669065 20.7266542,23.4535747 20.7266542,23.0276253 L20.7266542,11.1888634 C20.7266542,10.7629125 20.2103815,10.5495937 19.9084724,10.8507876 C20.1535178,10.6063363 20.5266599,10.5429911 20.8389497,10.6928175 L23.5357792,11.9865825 C23.819177,12.1225293 23.9993815,12.4084561 23.9993815,12.7221385 L23.9993815,21.4944114 C23.9993815,21.8080836 23.819177,22.0940054 23.5357792,22.2299521 L20.8389497,23.5236651 Z" id="Path" fill="#1F9CF0" fill-rule="nonzero"></path>
        <path d="M20.1920923,23.547774 C20.3982741,23.6278627 20.6333991,23.6227615 20.841473,23.5228801 L23.5366662,22.2291162 C23.8199105,22.0931694 24.0000128,21.8072477 24.0000128,21.4935755 L24.0000128,12.7213077 C24.0000128,12.4076253 23.8199105,12.1216985 23.5367173,11.9857517 L20.841473,10.6919903 C20.5684048,10.5608923 20.2487514,10.593003 20.0090241,10.7668431 C19.9748139,10.7916767 19.9421889,10.8194037 19.9115582,10.8499599 L14.7519349,15.5457401 L12.5045019,13.8439064 C12.2952928,13.6854838 12.0026547,13.6984663 11.8083468,13.8747839 L11.087524,14.528884 C10.8498478,14.7445624 10.8495752,15.1175717 11.0869354,15.3335969 L13.0359877,17.1074187 L11.0869354,18.8812557 C10.8495752,19.0972911 10.8498478,19.4702902 11.087524,19.6859686 L11.8083468,20.3400432 C12.0026547,20.5163914 12.2952928,20.5293484 12.5045019,20.3709564 L14.7519349,18.6690972 L19.9115582,23.3648963 C19.9931718,23.4463623 20.0890525,23.5077296 20.1920923,23.547774 Z M20.7292798,14.1428667 L16.8142798,17.1074187 L20.7292798,20.0719756 L20.7292798,14.1428667 Z" id="Shape" fill-opacity="0.25" fill="url(#linearGradient-1)" fill-rule="nonzero"></path>
    </g>
</svg>