<?xml version="1.0" encoding="UTF-8"?>
<svg width="24px" height="24px" viewBox="0 0 24 24" version="1.1" xmlns="http://www.w3.org/2000/svg" xmlns:xlink="http://www.w3.org/1999/xlink">
    <title>github</title>
    <g id="github" stroke="none" stroke-width="1" fill="none" fill-rule="evenodd">
        <g id="github-icon-copy" transform="translate(0.000000, -0.000000)" fill="#161614" fill-rule="nonzero">
            <path d="M12.0000994,0 C5.37349618,0 0,5.37250258 0,12.0000994 C0,17.3020576 3.43839372,21.8002071 8.20640034,23.3869593 C8.80612709,23.4980418 9.02630513,23.1266405 9.02630513,22.8096875 C9.02630513,22.5235355 9.01517698,21.5782405 9.01001034,20.5755165 C5.67157111,21.3014283 4.96712069,19.1596605 4.96712069,19.1596605 C4.4212461,17.7726186 3.63472575,17.4038004 3.63472575,17.4038004 C2.54595736,16.6590106 3.71679568,16.6743117 3.71679568,16.6743117 C4.9218133,16.758965 5.55631547,17.9109253 5.55631547,17.9109253 C6.6266032,19.7454772 8.36358518,19.2151025 9.04836267,18.9084827 C9.15606708,18.1328917 9.46705866,17.6035106 9.81024216,17.303846 C7.14485616,17.0004056 4.34295178,15.971451 4.34295178,11.3733471 C4.34295178,10.0632083 4.81172426,8.99272202 5.5793666,8.15234941 C5.45477126,7.85010142 5.04402402,6.62958394 5.69561582,4.97665909 C5.69561582,4.97665909 6.70330782,4.654142 8.99649761,6.20671495 C9.95371566,5.94083212 10.9802857,5.80749327 12.0000994,5.8029228 C13.0199131,5.80749327 14.047278,5.94083212 15.0062843,6.20671495 C17.2966922,4.654142 18.3029931,4.97665909 18.3029931,4.97665909 C18.9561747,6.62958394 18.5452287,7.85010142 18.4206334,8.15234941 C19.1900642,8.99272202 19.6556572,10.0632083 19.6556572,11.3733471 C19.6556572,15.9823805 16.8483875,16.9972263 14.1762451,17.2943076 C14.6066653,17.6667026 14.9901883,18.3969861 14.9901883,19.5165556 C14.9901883,21.122186 14.9762783,22.4144401 14.9762783,22.8096875 C14.9762783,23.1290251 15.1922831,23.5032084 15.8005547,23.3853695 C20.565978,21.7968288 24,17.3002691 24,12.0000994 C24,5.37250258 18.6272988,0 12.0000994,0 Z M4.49442743,17.0943949 C4.46799811,17.1540098 4.37420386,17.1718943 4.28875572,17.1309588 C4.20171783,17.0918115 4.15283357,17.0105364 4.18105132,16.9507228 C4.20688447,16.8893193 4.30087744,16.8722297 4.38771659,16.913364 C4.47495321,16.9525112 4.52463235,17.0345812 4.49442743,17.0943949 Z M5.08469899,17.6210863 C5.02746861,17.6741437 4.91559115,17.6495028 4.83968139,17.5656444 C4.76118832,17.4819847 4.74648331,17.3701072 4.80450855,17.316255 C4.86352738,17.2631977 4.97202668,17.2880373 5.05071846,17.371697 C5.12921149,17.4563502 5.14451268,17.5674328 5.08469899,17.6210863 Z M5.48964762,18.29497 C5.41612249,18.3460402 5.29589893,18.2981495 5.22157891,18.1914387 C5.14805375,18.0847279 5.14805375,17.9567543 5.22316866,17.9054855 C5.29768735,17.8542166 5.41612249,17.9003189 5.49143607,18.0062348 C5.56476252,18.1147341 5.56476252,18.2427075 5.48964762,18.29497 Z M6.17450243,19.0754226 C6.10872723,19.1479543 5.96863203,19.12848 5.86609422,19.0295192 C5.76117187,18.9327441 5.73196052,18.7954309 5.79793445,18.7228993 C5.86450449,18.6501691 6.00539458,18.6706369 6.10872723,18.7688029 C6.21285474,18.8653793 6.2446494,19.003686 6.17450243,19.0754226 Z M7.05961079,19.3388946 C7.03059819,19.4328876 6.89566959,19.4756116 6.75974741,19.4356696 C6.62402396,19.3945353 6.53519764,19.2844463 6.56262053,19.1894598 C6.59083828,19.0948707 6.72636301,19.0503581 6.86327877,19.0930822 C6.99880351,19.1340178 7.08782857,19.2433119 7.05961079,19.3388946 Z M8.06690128,19.4506525 C8.07027943,19.5496133 7.95502379,19.6316833 7.81234527,19.6334719 C7.66887187,19.6366513 7.55282137,19.5565686 7.55123164,19.4591974 C7.55123164,19.3592429 7.66390395,19.2779678 7.80737735,19.2755832 C7.95005589,19.2728012 8.06690128,19.3522878 8.06690128,19.4506525 Z M9.05645129,19.4127209 C9.07354093,19.5092973 8.97438132,19.6084567 8.83269638,19.6348861 C8.69339603,19.6603218 8.56442893,19.6007068 8.54674315,19.5049254 C8.52945483,19.4059645 8.63040287,19.306805 8.7695045,19.2811706 C8.91138816,19.2565297 9.03836809,19.3145549 9.05645129,19.4127209 Z" id="Shape"></path>
        </g>
    </g>
</svg>