<?xml version="1.0" encoding="UTF-8"?>
<svg width="24px" height="24px" viewBox="0 0 24 24" version="1.1" xmlns="http://www.w3.org/2000/svg" xmlns:xlink="http://www.w3.org/1999/xlink">
    <title>github_actions</title>
    <g id="github_actions" stroke="none" stroke-width="1" fill="none" fill-rule="evenodd">
        <g id="github-actions" transform="translate(0.000000, -0.000000)" fill-rule="nonzero">
            <path d="M5.02537205,0 C7.80075187,0 10.0507441,2.24925926 10.0507441,5.02411863 C10.0507441,7.75131328 7.87677673,9.96939722 5.16702741,10.0446302 C5.16702741,10.2753965 5.17721867,10.7113471 5.30779244,10.9745766 C5.48896355,11.3396625 6.57567785,12.0194094 7.64140033,12.0194094 L7.64140033,12.0194094 L8.02427355,12.0194094 C8.26489008,10.3064856 9.73582078,8.98827706 11.5154897,8.98827706 C13.2879427,8.98827706 14.7545782,10.2957503 15.0040429,11.99854 L15.0040429,11.99854 L16.9848984,11.99854 C17.234449,10.2957503 18.7009986,8.98827706 20.4734516,8.98827706 C22.4210625,8.98827706 23.9999742,10.5667091 23.9999742,12.5139201 C23.9999742,14.4610452 22.4210625,16.0394772 20.4734516,16.0394772 C18.7009986,16.0394772 17.2343631,14.7319182 16.9848984,13.0291284 L16.9848984,13.0291284 L15.0041287,13.0291284 C14.7546641,14.7319182 13.2880286,16.0394772 11.5154897,16.0394772 C9.74638697,16.0394772 8.28172722,14.7369852 8.02813922,13.0388332 L8.02813922,13.0388332 L7.60480532,13.0514578 C6.90778192,13.0462191 6.17141928,12.86009 5.57997165,12.4582464 C5.41873022,12.3486605 5.25988941,12.23352 5.09418098,12.1244494 L5.09418098,12.1244494 L5.09413288,12.3533704 C5.09322907,12.4273797 5.07987955,13.5399544 5.0788066,14.7752317 L5.07877063,15.0367864 C5.07927163,15.8468841 5.08567651,16.6816026 5.10474715,17.2904399 C5.1465823,18.6260825 6.2330076,19.704078 7.43188098,19.9564004 C7.58771046,19.9891216 7.85564439,19.9933298 8.02444536,19.9787298 C8.26549141,18.2664071 9.73625025,16.9487139 11.5154897,16.9487139 C13.4631006,16.9487139 15.0420123,18.5272319 15.0420123,20.474357 C15.0420123,22.421482 13.4631006,24 11.5154897,24 C9.75592228,24 8.29770533,22.7115068 8.03243441,21.0268383 L8.03243441,21.0268383 L7.72739003,21.0268383 C5.43650761,20.9017935 4.01222268,18.8005955 4.03704888,17.0965175 C4.06840376,14.9517771 4.04478022,12.8061778 4.0444366,10.6609221 L4.0444366,10.6609221 L4.0444366,9.95179134 C1.73869282,9.49558425 1.33226763e-15,7.46309205 1.33226763e-15,5.02411863 C1.33226763e-15,2.24925926 2.24990632,0 5.02537205,0 Z M11.5154897,17.9793023 C10.1372492,17.9793023 9.01989854,19.0963744 9.01989854,20.474357 C9.01989854,21.8523396 10.1372492,22.9694116 11.5154897,22.9694116 C12.8938161,22.9694116 14.0111668,21.8523396 14.0111668,20.474357 C14.0111668,19.0963744 12.8938161,17.9793023 11.5154897,17.9793023 Z M11.5154897,10.0188655 C10.1372492,10.0188655 9.01989854,11.1359375 9.01989854,12.5139201 C9.01989854,13.8918169 10.1372492,15.0088888 11.5154897,15.0088888 C12.8938161,15.0088888 14.0111668,13.8918169 14.0111668,12.5139201 C14.0111668,11.1359375 12.8938161,10.0188655 11.5154897,10.0188655 Z M20.4734516,10.0188655 C19.0951253,10.0188655 17.9778605,11.1359375 17.9778605,12.5139201 C17.9778605,13.8918169 19.0951253,15.0088888 20.4734516,15.0088888 C21.851778,15.0088888 22.9691287,13.8918169 22.9691287,12.5139201 C22.9691287,11.1359375 21.851778,10.0188655 20.4734516,10.0188655 Z M21.8947557,11.4634155 C22.0911318,11.6593133 22.0965437,11.9740721 21.9107338,12.176411 L21.8957006,12.1922134 L20.366699,13.7245266 C20.1718691,13.9198231 19.8590934,13.9263502 19.6563605,13.7430772 L19.6402105,13.7277901 L18.8916449,12.9909194 C18.6888261,12.7912429 18.6862489,12.4649757 18.8859753,12.2622075 C19.0806333,12.0645922 19.3953848,12.0571204 19.5990626,12.2415957 L19.614869,12.2566251 L19.9985153,12.634164 L21.1658619,11.4643602 C21.3668768,11.2627943 21.6932254,11.2624508 21.8947557,11.4634155 Z M12.895706,11.4558665 C13.092082,11.6517641 13.097494,11.9665231 12.9116841,12.1689478 L12.896651,12.1846643 L11.3676493,13.7169775 C11.1728195,13.9122741 10.8600438,13.9188011 10.6573108,13.7355281 L10.6411609,13.7202411 L9.89259516,12.9833703 C9.68977631,12.7836938 9.68719922,12.4574267 9.88692553,12.2546584 C10.0814977,12.057043 10.3963351,12.0495713 10.600013,12.2341326 L10.6158192,12.249076 L10.9994656,12.626615 L12.1668123,11.4568112 C12.3678272,11.2553312 12.6941757,11.2549017 12.895706,11.4558665 Z M5.02537205,1.03058843 C2.81927667,1.03058843 1.03084554,2.81848762 1.03084554,5.02411863 C1.03084554,7.22966378 2.81927667,9.01764883 5.02537205,9.01764883 C7.23146742,9.01764883 9.01989854,7.22966378 9.01989854,5.02411863 C9.01989854,2.81848762 7.23146742,1.03058843 5.02537205,1.03058843 Z M4.60974371,2.63722428 C5.45014055,3.14212673 6.27919807,3.66437742 7.09700221,4.20389048 C7.78208497,4.6558035 7.7803669,5.47537896 7.08763869,5.92832258 C6.25523092,6.47298856 5.40959395,6.99523926 4.55089961,7.49507465 C3.85198633,7.90189943 3.06966046,7.43409817 3.05067572,6.61907448 C3.03847738,6.0938179 3.04844223,5.56804603 3.04775499,5.04244593 C3.04715367,4.5311023 3.03710292,4.01950103 3.04947307,3.50841504 C3.07034769,2.64143252 3.86847985,2.18969125 4.60974371,2.63722428 Z M4.05575013,3.46890915 L4.05575013,3.8315904 C4.05566422,4.01117044 4.05566422,4.18834576 4.05557832,4.3635458 L4.05549242,4.7113694 L4.05549242,5.22520361 C4.05557832,5.62180839 4.05575013,6.01214377 4.05643736,6.40247914 C4.05678097,6.58618153 4.1523919,6.57870976 4.27609337,6.50210269 C4.98909487,6.06015202 5.70243999,5.61871663 6.41612872,5.17771066 C6.53407463,5.10496829 6.53742488,5.0289624 6.42171247,4.95596239 C5.6573405,4.47424817 4.89193768,3.99416573 4.05575013,3.46890915 Z" id="Shape" fill="#4A7EBF"></path>
            <path d="M12.4900425,20.9886636 C12.7746418,20.9886636 13.0054653,20.7579834 13.0054653,20.4733693 C13.0054653,20.1888411 12.7746418,19.9580751 12.4900425,19.9580751 C12.2054432,19.9580751 11.9746197,20.1888411 11.9746197,20.4733693 C11.9746197,20.7579834 12.2054432,20.9886636 12.4900425,20.9886636" id="Path" fill="#85B3DF"></path>
            <path d="M10.5167722,20.9886636 C10.8013715,20.9886636 11.0321949,20.7579834 11.0321949,20.4733693 C11.0321949,20.1888411 10.8013715,19.9580751 10.5167722,19.9580751 C10.2321729,19.9580751 10.0013494,20.1888411 10.0013494,20.4733693 C10.0013494,20.7579834 10.2321729,20.9886636 10.5167722,20.9886636" id="Path" fill="#85B3DF"></path>
            <path d="M20.4734774,22.9694116 C19.0951509,22.9694116 17.9778863,21.8523396 17.9778863,20.474357 C17.9778863,19.0963744 19.0951509,17.9793023 20.4734774,17.9793023 C21.8517179,17.9793023 22.9691544,19.0963744 22.9691544,20.474357 C22.9691544,21.8523396 21.8517179,22.9694116 20.4734774,22.9694116 M20.4734774,16.9487139 C18.7010243,16.9487139 17.2343888,18.256273 16.9849242,19.9590627 L16.4081662,19.9590627 C16.1563822,19.9590627 15.9521029,20.1898286 15.9521029,20.474357 C15.9521029,20.7589711 16.1563822,20.9896512 16.4081662,20.9896512 L16.9849242,20.9896512 C17.2343888,22.6924409 18.7010243,24 20.4734774,24 C22.4210883,24 24,22.421482 24,20.474357 C24,18.5272319 22.4210883,16.9487139 20.4734774,16.9487139" id="Shape" fill="#85B3DF"></path>
        </g>
    </g>
</svg>