<?xml version="1.0" encoding="UTF-8"?>
<svg width="24px" height="24px" viewBox="0 0 24 24" version="1.1" xmlns="http://www.w3.org/2000/svg" xmlns:xlink="http://www.w3.org/1999/xlink">
    <title>vscode</title>
    <defs>
        <path d="M17.0188124,23.7742357 C17.3968124,23.9215169 17.8278749,23.9120482 18.2094375,23.7284856 L23.150625,21.3508919 C23.6698125,21.1010482 24,20.5754856 24,19.9990169 L24,3.87730739 C24,3.30081989 23.6698125,2.77534176 23.150625,2.52549801 L18.2094375,0.147811427 C17.7087187,-0.0931206374 17.1226875,-0.0341072619 16.6832812,0.285377365 C16.6204687,0.331016741 16.5606561,0.381973617 16.5045937,0.438129867 L7.04521861,9.06806681 L2.92492482,5.94042616 C2.54136545,5.64927616 2.00487169,5.67312616 1.64864044,5.99717304 L0.327127302,7.19928243 C-0.108612389,7.59565742 -0.109112076,8.2811668 0.32604824,8.67817931 L3.89930608,11.9381106 L0.32604824,15.1980794 C-0.109112076,15.5951106 -0.108612389,16.2806106 0.327127302,16.6769856 L1.64864044,17.8790482 C2.00487169,18.2031419 2.54136545,18.2269544 2.92492482,17.9358607 L7.04521861,14.8081731 L16.5045937,23.4381419 C16.6542187,23.5878607 16.8299062,23.7006419 17.0188124,23.7742357 Z M18.0036562,6.48985741 L10.8261561,11.9381106 L18.0036562,17.3863919 L18.0036562,6.48985741 Z" id="path-1"></path>
        <path d="M17.0188124,23.7742357 C17.3968124,23.9215169 17.8278749,23.9120482 18.2094375,23.7284856 L23.150625,21.3508919 C23.6698125,21.1010482 24,20.5754856 24,19.9990169 L24,3.87730739 C24,3.30081989 23.6698125,2.77534176 23.150625,2.52549801 L18.2094375,0.147811427 C17.7087187,-0.0931206374 17.1226875,-0.0341072619 16.6832812,0.285377365 C16.6204687,0.331016741 16.5606561,0.381973617 16.5045937,0.438129867 L7.04521861,9.06806681 L2.92492482,5.94042616 C2.54136545,5.64927616 2.00487169,5.67312616 1.64864044,5.99717304 L0.327127302,7.19928243 C-0.108612389,7.59565742 -0.109112076,8.2811668 0.32604824,8.67817931 L3.89930608,11.9381106 L0.32604824,15.1980794 C-0.109112076,15.5951106 -0.108612389,16.2806106 0.327127302,16.6769856 L1.64864044,17.8790482 C2.00487169,18.2031419 2.54136545,18.2269544 2.92492482,17.9358607 L7.04521861,14.8081731 L16.5045937,23.4381419 C16.6542187,23.5878607 16.8299062,23.7006419 17.0188124,23.7742357 Z M18.0036562,6.48985741 L10.8261561,11.9381106 L18.0036562,17.3863919 L18.0036562,6.48985741 Z" id="path-3"></path>
        <path d="M17.0188124,23.7742357 C17.3968124,23.9215169 17.8278749,23.9120482 18.2094375,23.7284856 L23.150625,21.3508919 C23.6698125,21.1010482 24,20.5754856 24,19.9990169 L24,3.87730739 C24,3.30081989 23.6698125,2.77534176 23.150625,2.52549801 L18.2094375,0.147811427 C17.7087187,-0.0931206374 17.1226875,-0.0341072619 16.6832812,0.285377365 C16.6204687,0.331016741 16.5606561,0.381973617 16.5045937,0.438129867 L7.04521861,9.06806681 L2.92492482,5.94042616 C2.54136545,5.64927616 2.00487169,5.67312616 1.64864044,5.99717304 L0.327127302,7.19928243 C-0.108612389,7.59565742 -0.109112076,8.2811668 0.32604824,8.67817931 L3.89930608,11.9381106 L0.32604824,15.1980794 C-0.109112076,15.5951106 -0.108612389,16.2806106 0.327127302,16.6769856 L1.64864044,17.8790482 C2.00487169,18.2031419 2.54136545,18.2269544 2.92492482,17.9358607 L7.04521861,14.8081731 L16.5045937,23.4381419 C16.6542187,23.5878607 16.8299062,23.7006419 17.0188124,23.7742357 Z M18.0036562,6.48985741 L10.8261561,11.9381106 L18.0036562,17.3863919 L18.0036562,6.48985741 Z" id="path-5"></path>
        <path d="M17.0188124,23.7742357 C17.3968124,23.9215169 17.8278749,23.9120482 18.2094375,23.7284856 L23.150625,21.3508919 C23.6698125,21.1010482 24,20.5754856 24,19.9990169 L24,3.87730739 C24,3.30081989 23.6698125,2.77534176 23.150625,2.52549801 L18.2094375,0.147811427 C17.7087187,-0.0931206374 17.1226875,-0.0341072619 16.6832812,0.285377365 C16.6204687,0.331016741 16.5606561,0.381973617 16.5045937,0.438129867 L7.04521861,9.06806681 L2.92492482,5.94042616 C2.54136545,5.64927616 2.00487169,5.67312616 1.64864044,5.99717304 L0.327127302,7.19928243 C-0.108612389,7.59565742 -0.109112076,8.2811668 0.32604824,8.67817931 L3.89930608,11.9381106 L0.32604824,15.1980794 C-0.109112076,15.5951106 -0.108612389,16.2806106 0.327127302,16.6769856 L1.64864044,17.8790482 C2.00487169,18.2031419 2.54136545,18.2269544 2.92492482,17.9358607 L7.04521861,14.8081731 L16.5045937,23.4381419 C16.6542187,23.5878607 16.8299062,23.7006419 17.0188124,23.7742357 Z M18.0036562,6.48985741 L10.8261561,11.9381106 L18.0036562,17.3863919 L18.0036562,6.48985741 Z" id="path-7"></path>
        <linearGradient x1="50.0000484%" y1="-3.91645412e-07%" x2="50.0000484%" y2="99.999921%" id="linearGradient-9">
            <stop stop-color="#FFFFFF" offset="0%"></stop>
            <stop stop-color="#FFFFFF" stop-opacity="0" offset="100%"></stop>
        </linearGradient>
    </defs>
    <g id="vscode" stroke="none" stroke-width="1" fill="none" fill-rule="evenodd">
        <g id="visual-studio-code" transform="translate(0.000000, -0.000000)">
            <g id="Clipped">
                <mask id="mask-2" fill="white">
                    <use xlink:href="#path-1"></use>
                </mask>
                <g id="path-1"></g>
                <path d="M23.1652734,2.52920113 L18.2202421,0.148239864 C17.6478984,-0.127355325 16.9638046,-0.0111031681 16.5145546,0.438109242 L0.326246052,15.1980794 C-0.109178638,15.5951106 -0.108678013,16.2806106 0.327326053,16.6769856 L1.64963888,17.8790482 C2.00609513,18.2031419 2.54291701,18.2269544 2.92670139,17.9358607 L22.4211797,3.14688239 C23.0751797,2.65073864 24.0145547,3.11720114 24.0145547,3.93811365 L24.0145547,3.88070114 C24.0145547,3.30446677 23.6844609,2.77917613 23.1652734,2.52920113 Z" id="Path" fill="#0065A9" fill-rule="nonzero" mask="url(#mask-2)"></path>
            </g>
            <g id="Clipped">
                <mask id="mask-4" fill="white">
                    <use xlink:href="#path-3"></use>
                </mask>
                <g id="path-1"></g>
                <path d="M23.1652734,21.3470482 L18.2202421,23.7280169 C17.6478984,24.0035482 16.9638046,23.8872982 16.5145546,23.4381419 L0.326246052,8.67816056 C-0.109178638,8.28115743 -0.108678013,7.5956293 0.327326053,7.19926367 L1.64963888,5.99715428 C2.00609513,5.6731074 2.54291701,5.64924803 2.92670139,5.94040741 L22.4211797,20.7293294 C23.0751797,21.2254544 24.0145547,20.7590482 24.0145547,19.9380794 L24.0145547,19.9955481 C24.0145547,20.5717357 23.6844609,21.0970169 23.1652734,21.3470482 Z" id="Path" fill="#007ACC" fill-rule="nonzero" mask="url(#mask-4)"></path>
            </g>
            <g id="Clipped">
                <mask id="mask-6" fill="white">
                    <use xlink:href="#path-5"></use>
                </mask>
                <g id="path-1"></g>
                <path d="M18.2047411,23.7299282 C17.6322098,24.0052719 16.948116,23.8889282 16.498866,23.4396782 C17.0523661,23.9931782 17.998866,23.6011156 17.998866,22.8183032 L17.998866,1.06095296 C17.998866,0.278137644 17.0523661,-0.113900953 16.498866,0.439635146 C16.948116,-0.00961898325 17.6322098,-0.126035202 18.2047411,0.149316705 L23.1489286,2.5270061 C23.6684911,2.77684985 23.998866,3.30232798 23.998866,3.87881548 L23.998866,20.0005531 C23.998866,20.5770219 23.6684911,21.1024907 23.1489286,21.3523344 L18.2047411,23.7299282 Z" id="Path" fill="#1F9CF0" fill-rule="nonzero" mask="url(#mask-6)"></path>
            </g>
            <g id="Clipped">
                <mask id="mask-8" fill="white">
                    <use xlink:href="#path-7"></use>
                </mask>
                <g id="path-1"></g>
                <path d="M17.0188359,23.7742357 C17.3968359,23.9214232 17.8278984,23.9120482 18.2093671,23.7284856 L23.1505547,21.3507981 C23.6698359,21.1009544 24.0000234,20.5754856 24.0000234,19.9990169 L24.0000234,3.87728865 C24.0000234,3.30080114 23.6698359,2.77532301 23.1506484,2.52547926 L18.2093671,0.147796427 C17.7087422,-0.0931362937 17.1227109,-0.0341229182 16.6832109,0.285361428 C16.6204921,0.331000803 16.5606796,0.381957679 16.5045233,0.438113929 L7.04521392,9.06804806 L2.92492014,5.94040741 C2.54137014,5.64925741 2.004867,5.67311679 1.64863575,5.99715428 L0.327127303,7.19926367 C-0.108612389,7.59563868 -0.109112076,8.28115743 0.326048241,8.67816993 L3.89931077,11.9381106 L0.326048241,15.1980794 C-0.109112076,15.5951106 -0.108612389,16.2806106 0.327127303,16.6769856 L1.64863575,17.8790482 C2.004867,18.2031419 2.54137014,18.2269544 2.92492014,17.9358607 L7.04521392,14.8081731 L16.5045233,23.4381419 C16.6541484,23.5878607 16.8299296,23.7006419 17.0188359,23.7742357 Z M18.0036796,6.48983867 L10.8261795,11.9381106 L18.0036796,17.3863919 L18.0036796,6.48983867 Z" id="Shape" fill-opacity="0.25" fill="url(#linearGradient-9)" fill-rule="nonzero" mask="url(#mask-8)"></path>
            </g>
        </g>
    </g>
</svg>