<?xml version="1.0" encoding="UTF-8"?>
<svg width="24px" height="24px" viewBox="0 0 24 24" version="1.1" xmlns="http://www.w3.org/2000/svg" xmlns:xlink="http://www.w3.org/1999/xlink">
    <title>azure</title>
    <defs>
        <linearGradient x1="58.9860418%" y1="7.41028505%" x2="37.1944095%" y2="103.761958%" id="linearGradient-1">
            <stop stop-color="#114A8B" offset="0%"></stop>
            <stop stop-color="#0669BC" offset="100%"></stop>
        </linearGradient>
        <linearGradient x1="37.2630601%" y1="4.59873935%" x2="62.4694481%" y2="99.9830036%" id="linearGradient-2">
            <stop stop-color="#3CCBF4" offset="0%"></stop>
            <stop stop-color="#2892DF" offset="100%"></stop>
        </linearGradient>
    </defs>
    <g id="azure" stroke="none" stroke-width="1" fill="none" fill-rule="evenodd">
        <path d="M7.99484426,1 L15.110486,1 L7.73357974,22.8577033 C7.58071895,23.3105985 7.15597513,23.6154693 6.67797886,23.6154693 L1.11410997,23.6154693 C0.755260966,23.6154693 0.418372125,23.442656 0.209087477,23.1511555 C-0.000197172192,22.859655 -0.0562490157,22.4851884 0.0585090865,22.1451837 L6.93935319,1.75765611 C7.09223891,1.30484261 7.51691738,1 7.99484426,1 Z" id="Path" fill="url(#linearGradient-1)" fill-rule="nonzero"></path>
        <path d="M17.8193344,15.2393004 L6.60494779,15.2393004 C6.39212175,15.2393004 6.20095259,15.3694828 6.1228983,15.5674788 C6.04484401,15.7654749 6.09577442,15.9910634 6.25132369,16.1363195 L13.9414398,23.3156575 C14.1477889,23.5082917 14.4195511,23.6154693 14.7018415,23.6154693 L21.0571914,23.6154693 L17.8193344,15.2393004 Z" id="Path" fill="#0078D4" fill-rule="nonzero"></path>
        <path d="M15.822786,23.6154693 L21.0502727,23.6154693 L17.812855,15.2393004 L13.5490489,15.2393004 L16.0157417,22.5399907 C16.1412389,22.9077676 16.0683088,23.3142585 15.822786,23.6154693 Z" id="Path" fill="#000000" fill-rule="nonzero"></path>
        <path d="M11.9265512,10.4291341 L15.1088387,1 L8.6524533,1 C8.74811558,1.11058026 8.82137041,1.23870161 8.86814204,1.37723565 L11.9265512,10.4291341 Z" id="Path" fill="#000000" fill-rule="nonzero"></path>
        <polygon id="Path" fill-opacity="0.5" fill="#000000" fill-rule="nonzero" points="8.24940968 1 11.7187696 11.049953 12.1995666 9.62030129 9.29457756 1"></polygon>
        <path d="M14.8224251,23.6154693 L16.3218133,23.6154693 C16.5168002,23.2417852 16.5499093,22.8044601 16.4134041,22.4056795 L13.9921772,15.2393004 L13.1065795,15.2393004 L15.6186284,22.6741922 C15.6921982,22.8917894 15.6564078,23.131505 15.522487,23.318123 C15.3885662,23.504741 15.1729261,23.6154693 14.9432284,23.6153594 L14.8224251,23.6154693 Z" id="Path" fill-opacity="0.5" fill="#000000" fill-rule="nonzero"></path>
        <path d="M17.0606899,1.75776593 C16.9078706,1.30488792 16.4831656,1 16.0051989,1 L8.07775923,1 C8.56277495,1 8.99378097,1.3092993 9.14917436,1.76874804 L16.0187069,22.1229998 C16.1351625,22.4680302 16.0782841,22.8480323 15.865908,23.1438434 C15.6535319,23.4396545 15.311665,23.61503 14.9475114,23.61503 L22.8859332,23.61503 C23.2447636,23.61503 23.5816181,23.4421558 23.7908919,23.1506704 C24.0001657,22.859185 24.0562395,22.4847473 23.9415341,22.1447444 L17.0606899,1.75776593 Z" id="Path" fill="url(#linearGradient-2)" fill-rule="nonzero"></path>
    </g>
</svg>