<?xml version="1.0" encoding="UTF-8"?>
<svg width="2199px" height="460px" viewBox="0 0 2199 460" version="1.1" xmlns="http://www.w3.org/2000/svg" xmlns:xlink="http://www.w3.org/1999/xlink">
    <title>Group</title>
    <g id="contoso" stroke="none" stroke-width="1" fill="none" fill-rule="evenodd">
        <g id="contoso_text" transform="translate(1.000000, 0.000000)" fill="#7df3e1">
            <g id="Group" transform="translate(-0.500000, 0.000000)">
                <g id="Contoso" transform="translate(628.410000, 77.980000)" fill-rule="nonzero">
                    <path d="M225.54,97.44 L265.44,97.44 C263.2,81.48 258.44,67.41 251.16,55.23 C243.88,43.05 234.78,32.9 223.86,24.78 C212.94,16.66 200.48,10.5 186.48,6.3 C172.48,2.1 157.64,0 141.96,0 C119,0 98.63,4.13 80.85,12.39 C63.07,20.65 48.23,31.92 36.33,46.2 C24.43,60.48 15.4,77.21 9.24,96.39 C3.08,115.57 0,136.08 0,157.92 C0,179.76 2.87,200.2 8.61,219.24 C14.35,238.28 22.96,254.8 34.44,268.8 C45.92,282.8 60.34,293.79 77.7,301.77 C95.06,309.75 115.36,313.74 138.6,313.74 C176.96,313.74 207.2,303.24 229.32,282.24 C251.44,261.24 264.46,231.84 268.38,194.04 L228.48,194.04 C227.64,206.36 225.12,217.84 220.92,228.48 C216.72,239.12 210.91,248.29 203.49,255.99 C196.07,263.69 187.25,269.71 177.03,274.05 C166.81,278.39 155.12,280.56 141.96,280.56 C124.04,280.56 108.64,277.2 95.76,270.48 C82.88,263.76 72.31,254.73 64.05,243.39 C55.79,232.05 49.7,218.75 45.78,203.49 C41.86,188.23 39.9,172.06 39.9,154.98 C39.9,139.3 41.86,124.18 45.78,109.62 C49.7,95.06 55.79,82.11 64.05,70.77 C72.31,59.43 82.81,50.4 95.55,43.68 C108.29,36.96 123.62,33.6 141.54,33.6 C162.54,33.6 180.67,38.92 195.93,49.56 C211.19,60.2 221.06,76.16 225.54,97.44 Z" id="Path"></path>
                    <path d="M338.1,198.66 C338.1,185.5 339.85,173.81 343.35,163.59 C346.85,153.37 351.68,144.76 357.84,137.76 C364,130.76 371.21,125.44 379.47,121.8 C387.73,118.16 396.48,116.34 405.72,116.34 C414.96,116.34 423.71,118.16 431.97,121.8 C440.23,125.44 447.44,130.76 453.6,137.76 C459.76,144.76 464.59,153.37 468.09,163.59 C471.59,173.81 473.34,185.5 473.34,198.66 C473.34,211.82 471.59,223.51 468.09,233.73 C464.59,243.95 459.76,252.49 453.6,259.35 C447.44,266.21 440.23,271.46 431.97,275.1 C423.71,278.74 414.96,280.56 405.72,280.56 C396.48,280.56 387.73,278.74 379.47,275.1 C371.21,271.46 364,266.21 357.84,259.35 C351.68,252.49 346.85,243.95 343.35,233.73 C339.85,223.51 338.1,211.82 338.1,198.66 Z M300.3,198.66 C300.3,214.62 302.54,229.46 307.02,243.18 C311.5,256.9 318.22,268.87 327.18,279.09 C336.14,289.31 347.2,297.29 360.36,303.03 C373.52,308.77 388.64,311.64 405.72,311.64 C423.08,311.64 438.27,308.77 451.29,303.03 C464.31,297.29 475.3,289.31 484.26,279.09 C493.22,268.87 499.94,256.9 504.42,243.18 C508.9,229.46 511.14,214.62 511.14,198.66 C511.14,182.7 508.9,167.79 504.42,153.93 C499.94,140.07 493.22,128.03 484.26,117.81 C475.3,107.59 464.31,99.54 451.29,93.66 C438.27,87.78 423.08,84.84 405.72,84.84 C388.64,84.84 373.52,87.78 360.36,93.66 C347.2,99.54 336.14,107.59 327.18,117.81 C318.22,128.03 311.5,140.07 307.02,153.93 C302.54,167.79 300.3,182.7 300.3,198.66 Z" id="Shape"></path>
                    <path d="M553.14,89.88 L553.14,307.02 L588.84,307.02 L588.84,184.38 C588.84,174.58 590.17,165.55 592.83,157.29 C595.49,149.03 599.48,141.82 604.8,135.66 C610.12,129.5 616.77,124.74 624.75,121.38 C632.73,118.02 642.18,116.34 653.1,116.34 C666.82,116.34 677.6,120.26 685.44,128.1 C693.28,135.94 697.2,146.58 697.2,160.02 L697.2,307.02 L732.9,307.02 L732.9,164.22 C732.9,152.46 731.71,141.75 729.33,132.09 C726.95,122.43 722.82,114.1 716.94,107.1 C711.06,100.1 703.36,94.64 693.84,90.72 C684.32,86.8 672.42,84.84 658.14,84.84 C625.94,84.84 602.42,98 587.58,124.32 L586.74,124.32 L586.74,89.88 L553.14,89.88 Z" id="Path"></path>
                    <path d="M836.22,89.88 L836.22,24.78 L800.52,24.78 L800.52,89.88 L763.56,89.88 L763.56,121.38 L800.52,121.38 L800.52,259.56 C800.52,269.64 801.5,277.76 803.46,283.92 C805.42,290.08 808.43,294.84 812.49,298.2 C816.55,301.56 821.87,303.87 828.45,305.13 C835.03,306.39 842.94,307.02 852.18,307.02 L879.48,307.02 L879.48,275.52 L863.1,275.52 C857.5,275.52 852.95,275.31 849.45,274.89 C845.95,274.47 843.22,273.56 841.26,272.16 C839.3,270.76 837.97,268.8 837.27,266.28 C836.57,263.76 836.22,260.4 836.22,256.2 L836.22,121.38 L879.48,121.38 L879.48,89.88 L836.22,89.88 Z" id="Path"></path>
                    <path d="M945,198.66 C945,185.5 946.75,173.81 950.25,163.59 C953.75,153.37 958.58,144.76 964.74,137.76 C970.9,130.76 978.11,125.44 986.37,121.8 C994.63,118.16 1003.38,116.34 1012.62,116.34 C1021.86,116.34 1030.61,118.16 1038.87,121.8 C1047.13,125.44 1054.34,130.76 1060.5,137.76 C1066.66,144.76 1071.49,153.37 1074.99,163.59 C1078.49,173.81 1080.24,185.5 1080.24,198.66 C1080.24,211.82 1078.49,223.51 1074.99,233.73 C1071.49,243.95 1066.66,252.49 1060.5,259.35 C1054.34,266.21 1047.13,271.46 1038.87,275.1 C1030.61,278.74 1021.86,280.56 1012.62,280.56 C1003.38,280.56 994.63,278.74 986.37,275.1 C978.11,271.46 970.9,266.21 964.74,259.35 C958.58,252.49 953.75,243.95 950.25,233.73 C946.75,223.51 945,211.82 945,198.66 Z M907.2,198.66 C907.2,214.62 909.44,229.46 913.92,243.18 C918.4,256.9 925.12,268.87 934.08,279.09 C943.04,289.31 954.1,297.29 967.26,303.03 C980.42,308.77 995.54,311.64 1012.62,311.64 C1029.98,311.64 1045.17,308.77 1058.19,303.03 C1071.21,297.29 1082.2,289.31 1091.16,279.09 C1100.12,268.87 1106.84,256.9 1111.32,243.18 C1115.8,229.46 1118.04,214.62 1118.04,198.66 C1118.04,182.7 1115.8,167.79 1111.32,153.93 C1106.84,140.07 1100.12,128.03 1091.16,117.81 C1082.2,107.59 1071.21,99.54 1058.19,93.66 C1045.17,87.78 1029.98,84.84 1012.62,84.84 C995.54,84.84 980.42,87.78 967.26,93.66 C954.1,99.54 943.04,107.59 934.08,117.81 C925.12,128.03 918.4,140.07 913.92,153.93 C909.44,167.79 907.2,182.7 907.2,198.66 Z" id="Shape"></path>
                    <path d="M1181.88,238.56 L1146.18,238.56 C1146.74,252 1149.54,263.41 1154.58,272.79 C1159.62,282.17 1166.34,289.73 1174.74,295.47 C1183.14,301.21 1192.8,305.34 1203.72,307.86 C1214.64,310.38 1226.12,311.64 1238.16,311.64 C1249.08,311.64 1260.07,310.59 1271.13,308.49 C1282.19,306.39 1292.13,302.68 1300.95,297.36 C1309.77,292.04 1316.91,285.04 1322.37,276.36 C1327.83,267.68 1330.56,256.76 1330.56,243.6 C1330.56,233.24 1328.53,224.56 1324.47,217.56 C1320.41,210.56 1315.09,204.75 1308.51,200.13 C1301.93,195.51 1294.37,191.8 1285.83,189 C1277.29,186.2 1268.54,183.82 1259.58,181.86 C1251.18,179.9 1242.78,178.01 1234.38,176.19 C1225.98,174.37 1218.42,172.13 1211.7,169.47 C1204.98,166.81 1199.45,163.45 1195.11,159.39 C1190.77,155.33 1188.6,150.22 1188.6,144.06 C1188.6,138.46 1190,133.91 1192.8,130.41 C1195.6,126.91 1199.24,124.11 1203.72,122.01 C1208.2,119.91 1213.17,118.44 1218.63,117.6 C1224.09,116.76 1229.48,116.34 1234.8,116.34 C1240.68,116.34 1246.49,116.97 1252.23,118.23 C1257.97,119.49 1263.22,121.52 1267.98,124.32 C1272.74,127.12 1276.66,130.83 1279.74,135.45 C1282.82,140.07 1284.64,145.88 1285.2,152.88 L1320.9,152.88 C1320.06,139.72 1317.26,128.73 1312.5,119.91 C1307.74,111.09 1301.37,104.09 1293.39,98.91 C1285.41,93.73 1276.24,90.09 1265.88,87.99 C1255.52,85.89 1244.18,84.84 1231.86,84.84 C1222.34,84.84 1212.75,86.03 1203.09,88.41 C1193.43,90.79 1184.75,94.43 1177.05,99.33 C1169.35,104.23 1163.05,110.6 1158.15,118.44 C1153.25,126.28 1150.8,135.66 1150.8,146.58 C1150.8,160.58 1154.3,171.5 1161.3,179.34 C1168.3,187.18 1177.05,193.27 1187.55,197.61 C1198.05,201.95 1209.46,205.31 1221.78,207.69 C1234.1,210.07 1245.51,212.73 1256.01,215.67 C1266.51,218.61 1275.26,222.46 1282.26,227.22 C1289.26,231.98 1292.76,238.98 1292.76,248.22 C1292.76,254.94 1291.08,260.47 1287.72,264.81 C1284.36,269.15 1280.09,272.44 1274.91,274.68 C1269.73,276.92 1264.06,278.46 1257.9,279.3 C1251.74,280.14 1245.86,280.56 1240.26,280.56 C1232.98,280.56 1225.91,279.86 1219.05,278.46 C1212.19,277.06 1206.03,274.75 1200.57,271.53 C1195.11,268.31 1190.7,263.97 1187.34,258.51 C1183.98,253.05 1182.16,246.4 1181.88,238.56 Z" id="Path"></path>
                    <path d="M1396.08,198.66 C1396.08,185.5 1397.83,173.81 1401.33,163.59 C1404.83,153.37 1409.66,144.76 1415.82,137.76 C1421.98,130.76 1429.19,125.44 1437.45,121.8 C1445.71,118.16 1454.46,116.34 1463.7,116.34 C1472.94,116.34 1481.69,118.16 1489.95,121.8 C1498.21,125.44 1505.42,130.76 1511.58,137.76 C1517.74,144.76 1522.57,153.37 1526.07,163.59 C1529.57,173.81 1531.32,185.5 1531.32,198.66 C1531.32,211.82 1529.57,223.51 1526.07,233.73 C1522.57,243.95 1517.74,252.49 1511.58,259.35 C1505.42,266.21 1498.21,271.46 1489.95,275.1 C1481.69,278.74 1472.94,280.56 1463.7,280.56 C1454.46,280.56 1445.71,278.74 1437.45,275.1 C1429.19,271.46 1421.98,266.21 1415.82,259.35 C1409.66,252.49 1404.83,243.95 1401.33,233.73 C1397.83,223.51 1396.08,211.82 1396.08,198.66 Z M1358.28,198.66 C1358.28,214.62 1360.52,229.46 1365,243.18 C1369.48,256.9 1376.2,268.87 1385.16,279.09 C1394.12,289.31 1405.18,297.29 1418.34,303.03 C1431.5,308.77 1446.62,311.64 1463.7,311.64 C1481.06,311.64 1496.25,308.77 1509.27,303.03 C1522.29,297.29 1533.28,289.31 1542.24,279.09 C1551.2,268.87 1557.92,256.9 1562.4,243.18 C1566.88,229.46 1569.12,214.62 1569.12,198.66 C1569.12,182.7 1566.88,167.79 1562.4,153.93 C1557.92,140.07 1551.2,128.03 1542.24,117.81 C1533.28,107.59 1522.29,99.54 1509.27,93.66 C1496.25,87.78 1481.06,84.84 1463.7,84.84 C1446.62,84.84 1431.5,87.78 1418.34,93.66 C1405.18,99.54 1394.12,107.59 1385.16,117.81 C1376.2,128.03 1369.48,140.07 1365,153.93 C1360.52,167.79 1358.28,182.7 1358.28,198.66 Z" id="Shape"></path>
                </g>
                <path d="M230,0 C357.025492,0 460,102.974508 460,230 C460,357.025492 357.025492,460 230,460 C102.974508,460 0,357.025492 0,230 C0,102.974508 102.974508,0 230,0 Z M367.56284,253.638122 C363.738986,267.662854 358.039972,281.415232 350.430079,294.595953 C302.79552,377.101431 197.296175,405.369895 114.790697,357.735335 C101.622188,350.132493 89.782566,341.048302 79.4614134,330.831178 C91.8884977,359.414155 113.253817,384.408322 142.318081,401.188583 C214.445511,442.831374 306.674498,418.118692 348.317289,345.991262 C365.086367,316.946368 371.082238,284.57753 367.56284,253.638122 Z M217.002697,54.7966428 C186.035571,51.2673248 153.707327,57.2731507 124.643063,74.0534113 C52.5156331,115.696202 27.8029505,207.92519 69.4457416,280.05262 C86.2148189,309.097513 111.249119,330.474509 139.803131,342.896325 C129.569284,332.572404 120.508882,320.760724 112.898989,307.580004 C65.2644298,225.074526 93.5328941,119.575181 176.038372,71.9406214 C189.206881,64.337779 202.993832,58.6264612 217.002697,54.7966428 Z M230,132.358491 C176.074083,132.358491 132.358491,176.074083 132.358491,230 C132.358491,283.925917 176.074083,327.641509 230,327.641509 C283.925917,327.641509 327.641509,283.925917 327.641509,230 C327.641509,176.074083 283.925917,132.358491 230,132.358491 Z M272.311321,73.7735849 C238.773166,73.7735849 207.742995,84.7654271 182.70838,103.283019 C196.766082,99.5822076 211.525498,97.6415094 226.745283,97.6415094 C322.014402,97.6415094 399.245283,174.87239 399.245283,270.141509 C399.245283,285.347194 397.297954,300.142703 393.610241,314.189645 C412.150284,289.135986 423.113208,258.135993 423.113208,224.575472 C423.113208,141.289889 355.596903,73.7735849 272.311321,73.7735849 Z" id="Combined-Shape"></path>
            </g>
        </g>
    </g>
</svg>