<?xml version="1.0" encoding="UTF-8"?>
<svg width="24px" height="24px" viewBox="0 0 24 24" version="1.1" xmlns="http://www.w3.org/2000/svg" xmlns:xlink="http://www.w3.org/1999/xlink">
    <title>onedrive</title>
    <g id="onedrive" stroke="none" stroke-width="1" fill="none" fill-rule="evenodd">
        <g id="microsoft-onedrive" transform="translate(0.000000, 4.000000)" fill-rule="nonzero">
            <path d="M14.4994275,10.376396 L19.4533174,5.63887014 C18.4242948,1.62644136 14.337399,-0.792102077 10.3249469,0.236920581 C8.51802938,0.700311639 6.94863236,1.82043742 5.9230814,3.37862714 C5.99976181,3.37669324 14.4994275,10.376396 14.4994275,10.376396 Z" id="Path" fill="#0364B8"></path>
            <path d="M9.15169708,4.2705058 L9.15146408,4.2713213 C8.20487694,3.68504587 7.11320049,3.37515544 5.99973851,3.37665892 C5.97401527,3.37665892 5.94873474,3.37830094 5.92305811,3.37860383 C2.6110982,3.4196352 -0.0405387529,6.13777045 0.000469305238,9.44973037 C0.0153347263,10.6511267 0.390721559,11.8203456 1.07795603,12.8058671 L8.49966896,11.8763356 L14.1897467,7.28820958 L9.15169708,4.2705058 Z" id="Path" fill="#0078D4"></path>
            <path d="M19.4533174,5.63889344 C19.344413,5.63162383 19.2349728,5.62658636 19.124251,5.62658636 C18.4596642,5.62593862 17.8019975,5.76168462 17.1919792,6.02541768 L17.1918395,6.02490509 L14.18977,7.28823287 L17.49933,11.3763635 L23.4160006,12.8146279 C24.6928191,10.444269 23.8063228,7.48765786 21.4359638,6.21083935 C20.8234759,5.88091088 20.1474486,5.68591291 19.4533407,5.63891674 L19.4533407,5.63889344 L19.4533174,5.63889344 Z" id="Path" fill="#1490DF"></path>
            <path d="M1.07795603,12.8058671 C2.19857112,14.4170411 4.03720003,15.3772355 5.99976181,15.3762119 L19.1242277,15.3762119 C20.917072,15.3767228 22.5654329,14.3929023 23.4159773,12.8146746 L14.1897467,7.28820958 L1.07795603,12.8058671 Z" id="Path" fill="#28A8EA"></path>
        </g>
    </g>
</svg>