<?xml version="1.0" encoding="UTF-8"?>
<svg width="24px" height="24px" viewBox="0 0 24 24" version="1.1" xmlns="http://www.w3.org/2000/svg" xmlns:xlink="http://www.w3.org/1999/xlink">
    <title>stackoverflow</title>
    <g id="stackoverflow" stroke="none" stroke-width="1" fill="none" fill-rule="evenodd">
        <g id="stackoverflow-icon" transform="translate(2.000000, 0.506113)" fill-rule="nonzero">
            <polygon id="Path" fill="#BCBBBB" points="17.1270208 21.8660508 17.1270208 15.4364896 19.26097 15.4364896 19.26097 24 0 24 0 15.4364896 2.13394919 15.4364896 2.13394919 21.8660508"></polygon>
            <path d="M4.48960739,14.8267898 L14.965358,17.0161663 L15.408776,14.9099308 L4.93302541,12.7205543 L4.48960739,14.8267898 L4.48960739,14.8267898 Z M5.87528869,9.83833715 L15.5750577,14.3556582 L16.4618938,12.4157044 L6.76212471,7.87066975 L5.87528869,9.83833715 Z M8.56351038,5.07159353 L16.7944573,11.9168591 L18.152425,10.2817552 L9.92147809,3.43648961 L8.56351038,5.07159353 L8.56351038,5.07159353 Z M13.8845266,0 L12.1662818,1.27482679 L18.5404157,9.86605085 L20.2586605,8.591224 L13.8845266,0 Z M4.26789839,19.704388 L14.965358,19.704388 L14.965358,17.5704388 L4.26789839,17.5704388 L4.26789839,19.704388 Z" id="Shape" fill="#F48023"></path>
        </g>
    </g>
</svg>