<?xml version="1.0" encoding="UTF-8"?>
<svg width="24px" height="24px" viewBox="0 0 24 24" version="1.1" xmlns="http://www.w3.org/2000/svg" xmlns:xlink="http://www.w3.org/1999/xlink">
    <title>teams</title>
    <defs>
        <linearGradient x1="17.372046%" y1="-6.51032331%" x2="82.6280767%" y2="106.510437%" id="linearGradient-1">
            <stop stop-color="#5A62C3" offset="0%"></stop>
            <stop stop-color="#4D55BD" offset="50%"></stop>
            <stop stop-color="#3940AB" offset="100%"></stop>
        </linearGradient>
    </defs>
    <g id="teams" stroke="none" stroke-width="1" fill="none" fill-rule="evenodd">
        <g id="microsoft-teams" transform="translate(0.000000, 1.000000)" fill-rule="nonzero">
            <path d="M16.7402797,8.37209427 L22.9395383,8.37209427 C23.5252188,8.37209427 24,8.84687547 24,9.43255594 C24,9.43255594 24,9.43255594 24,9.43255594 L24,15.0792562 C24,17.2317836 22.2550402,18.9767435 20.1025129,18.9767435 L20.1025129,18.9767435 L20.0840888,18.9767435 C17.9315615,18.977045 16.186354,17.2323328 16.1860418,15.0798054 C16.1860418,15.0796223 16.1860418,15.0794393 16.1860418,15.0792455 L16.1860418,8.9263323 C16.1860418,8.6202313 16.4341896,8.37209427 16.7402797,8.37209427 L16.7402797,8.37209427 Z" id="Path" fill="#5059C9"></path>
            <circle id="Oval" fill="#5059C9" cx="20.9302357" cy="4.74418316" r="2.51162828"></circle>
            <circle id="Oval" fill="#7B83EB" cx="13.1162774" cy="3.62791111" r="3.62791111"></circle>
            <path d="M17.9536789,8.37209427 L7.72073995,8.37209427 C7.14203711,8.38641567 6.68424776,8.86667776 6.69767542,9.44540212 L6.69767542,15.885777 C6.61686183,19.3586509 9.36443781,22.2406003 12.8372148,22.3255919 C16.3099918,22.2406003 19.057557,19.3586509 18.9767542,15.885777 L18.9767542,9.44540212 C18.9901603,8.86667776 18.5323818,8.38641567 17.9536789,8.37209427 Z" id="Path" fill="#7B83EB"></path>
            <path d="M13.3953508,8.37209427 L13.3953508,17.3972119 C13.3925727,17.8110788 13.141776,18.1828858 12.7590717,18.3404643 C12.6372214,18.3920106 12.5062613,18.4186074 12.3739553,18.4186074 L7.18883469,18.4186074 C7.11628013,18.2344213 7.04930338,18.0502353 6.99348224,17.8604714 C6.79810824,17.220025 6.69841841,16.5542416 6.69766465,15.8846572 L6.69766465,9.44372231 C6.68424776,8.86592401 7.14128335,8.38641567 7.71906015,8.37209427 L13.3953508,8.37209427 Z" id="Path" fill="#000000" opacity="0.1"></path>
            <path d="M12.8372148,8.37209427 L12.8372148,17.9553479 C12.8372148,18.0876539 12.8106179,18.2186139 12.7590717,18.3404643 C12.6014933,18.7231686 12.2296861,18.9739761 11.8158193,18.9767435 L7.45116391,18.9767435 C7.35627658,18.7925573 7.26697783,18.6083713 7.18883469,18.4186074 C7.11069156,18.2288436 7.04930338,18.0502353 6.99348224,17.8604714 C6.79810824,17.2200358 6.69841841,16.5542416 6.69766465,15.8846572 L6.69766465,9.44372231 C6.68424776,8.86592401 7.14128335,8.38641567 7.71906015,8.37209427 L12.8372148,8.37209427 Z" id="Path" fill="#000000" opacity="0.2"></path>
            <path d="M12.8372148,8.37209427 L12.8372148,16.8390758 C12.8329614,17.4014114 12.3781549,17.8562181 11.8158193,17.8604714 L6.993493,17.8604714 C6.79811902,17.2200358 6.69842918,16.5542416 6.69767542,15.8846572 L6.69767542,9.44372231 C6.68425853,8.86592401 7.14129413,8.38641567 7.71907092,8.37209427 L12.8372148,8.37209427 Z" id="Path" fill="#000000" opacity="0.2"></path>
            <path d="M12.279068,8.37209427 L12.279068,16.8390758 C12.2748146,17.4014114 11.8200081,17.8562181 11.2576725,17.8604714 L6.993493,17.8604714 C6.79811902,17.2200358 6.69842918,16.5542416 6.69767542,15.8846572 L6.69767542,9.44372231 C6.68425853,8.86592401 7.14129412,8.38641567 7.71907092,8.37209427 L12.279068,8.37209427 Z" id="Path" fill="#000000" opacity="0.2"></path>
            <path d="M13.3953508,5.48651603 L13.3953508,7.24465583 C13.3004635,7.25023364 13.2111648,7.25582222 13.1162774,7.25582222 C13.0213901,7.25582222 12.9320914,7.25024441 12.837204,7.24465583 C12.6488077,7.23215422 12.4619619,7.20226235 12.279068,7.15535708 C11.1488299,6.88769773 10.2150749,6.09504615 9.76743975,5.02326733 C9.69041644,4.84328077 9.63062194,4.65639193 9.58883147,4.4651313 L12.3739446,4.4651313 C12.9371631,4.46726336 13.393208,4.92329752 13.3953508,5.48651603 Z" id="Path" fill="#000000" opacity="0.1"></path>
            <path d="M12.8372148,6.04465207 L12.8372148,7.24465583 C12.6488184,7.23215422 12.4619727,7.20226235 12.2790788,7.15535708 C11.1488407,6.88769773 10.2150857,6.09504615 9.76745053,5.02326733 L11.8158193,5.02326733 C12.379027,5.02539939 12.835072,5.48144433 12.8372148,6.04465207 Z" id="Path" fill="#000000" opacity="0.2"></path>
            <path d="M12.8372148,6.04465207 L12.8372148,7.24465583 C12.6488184,7.23215422 12.4619727,7.20226235 12.2790788,7.15535708 C11.1488407,6.88769773 10.2150857,6.09504615 9.76745053,5.02326733 L11.8158193,5.02326733 C12.379027,5.02539939 12.835072,5.48144433 12.8372148,6.04465207 Z" id="Path" fill="#000000" opacity="0.2"></path>
            <path d="M12.279068,6.04465207 L12.279068,7.15534632 C11.1488299,6.88768697 10.2150749,6.09503539 9.76743975,5.02325657 L11.2576725,5.02325657 C11.820891,5.02539939 12.2769252,5.48144433 12.279068,6.04465207 Z" id="Path" fill="#000000" opacity="0.2"></path>
            <path d="M1.02306454,5.02325657 L11.2559927,5.02325657 C11.8210203,5.02325657 12.2790573,5.48130434 12.2790573,6.04632111 L12.2790573,16.2792493 C12.2790573,16.8442768 11.8210095,17.3023138 11.2559927,17.3023138 L1.02306454,17.3023138 C0.458037008,17.3023138 0,16.844266 0,16.2792493 L0,6.04632111 C0,5.48130434 0.458047777,5.02325657 1.02306454,5.02325657 Z" id="Path" fill="url(#linearGradient-1)"></path>
            <polygon id="Path" fill="#FFFFFF" points="8.83200491 8.91795482 6.78641423 8.91795482 6.78641423 14.4881918 5.4831672 14.4881918 5.4831672 8.91795482 3.44707388 8.91795482 3.44707388 7.83740011 8.83200491 7.83740011"></polygon>
        </g>
    </g>
</svg>