<?xml version="1.0" encoding="UTF-8"?>
<svg width="24px" height="24px" viewBox="0 0 24 24" version="1.1" xmlns="http://www.w3.org/2000/svg" xmlns:xlink="http://www.w3.org/1999/xlink">
    <title>vsproper</title>
    <defs>
        <linearGradient x1="49.9999997%" y1="0.00244053108%" x2="49.9999997%" y2="99.999641%" id="linearGradient-1">
            <stop stop-color="#FFFFFF" offset="0%"></stop>
            <stop stop-color="#FFFFFF" stop-opacity="0" offset="100%"></stop>
        </linearGradient>
    </defs>
    <g id="vsproper" stroke="none" stroke-width="1" fill="none" fill-rule="evenodd">
        <g id="visual-studio" transform="translate(0.000000, -0.000000)" fill-rule="nonzero">
            <path d="M3.46749998,18.7880825 C3.18075218,19.0331011 2.78053815,19.0959366 2.43249999,18.9505826 L0.614999996,18.1880825 C0.244370242,18.0334791 0.00217766465,17.6721593 0,17.2705826 L0,6.60558265 C0.00217766465,6.2040059 0.244370242,5.84268608 0.614999996,5.68808266 L2.43249999,4.93808267 C2.78053815,4.79272863 3.18075218,4.85556416 3.46749998,5.10058266 L3.87499997,5.43808266 C3.70650811,5.31695473 3.48435189,5.30045337 3.29981345,5.39535885 C3.11527501,5.49026433 2.99947705,5.6805707 3,5.88808266 L3,17.9880826 C2.99947705,18.1955945 3.11527501,18.385901 3.29981345,18.4808064 C3.48435189,18.5757119 3.70650811,18.5592105 3.87499997,18.4380826 L3.46749998,18.7880825 Z" id="Path" fill="#52218A"></path>
            <path d="M0.614999996,18.1880825 C0.244370242,18.0334791 0.00217766465,17.6721593 0,17.2705826 L0,17.1880826 C0.00252125668,17.4242423 0.148586453,17.6350681 0.368804173,17.7204024 C0.589021893,17.8057369 0.839007517,17.7483808 1,17.5755826 L16.5,0.438082691 C16.9497906,-0.0094743958 17.6325349,-0.125600981 18.2049999,0.148082693 L23.1499998,2.52808268 C23.6697913,2.77800994 24.0002495,3.30382738 24,3.88058267 L24,3.93808267 C23.9996837,3.57212475 23.7886478,3.23906655 23.4578741,3.08249678 C23.1271005,2.92592703 22.7357334,2.97384129 22.4524998,3.20558268 L3.87499997,18.4380826 L3.46749998,18.7880825 C3.18075218,19.0331011 2.78053815,19.0959366 2.43249999,18.9505826 L0.614999996,18.1880825 Z" id="Path" fill="#6C33AF"></path>
            <path d="M0.614999996,5.68808266 C0.244370242,5.84268608 0.00217766465,6.2040059 0,6.60558265 L0,6.68808265 C0.00252125668,6.45192288 0.148586453,6.24109715 0.368804173,6.15576279 C0.589021893,6.07042842 0.839007517,6.12778445 1,6.30058266 L16.5,23.4380825 C16.9497906,23.8856397 17.6325349,24.0017662 18.2049999,23.7280826 L23.1499998,21.3480826 C23.6697913,21.0981553 24.0002495,20.5723379 24,19.9955825 L24,19.9380826 C23.9996837,20.3040405 23.7886478,20.6370987 23.4578741,20.7936685 C23.1271005,20.9502382 22.7357334,20.902324 22.4524998,20.6705825 L3.87499997,5.43808266 L3.46749998,5.08808267 C3.17822048,4.84728861 2.77823698,4.78931998 2.43249999,4.93808267 L0.614999996,5.68808266 Z" id="Path" fill="#854CC7"></path>
            <path d="M18.2049999,23.7280826 C17.6325349,24.0017662 16.9497906,23.8856397 16.4999999,23.4380825 C16.7519172,23.6881864 17.129437,23.7624397 17.4573091,23.6263728 C17.7851811,23.490306 17.9991941,23.1705665 17.9999999,22.8155825 L17.9999999,1.06558269 C18.0012154,0.709688805 17.7879439,0.388100076 17.4596191,0.250750893 C17.1312944,0.11340171 16.7525626,0.187335736 16.4999999,0.438082691 C16.9497906,-0.0094743958 17.6325349,-0.125600981 18.2049999,0.148082693 L23.1499998,2.52558268 C23.6697913,2.77550994 24.0002495,3.30132739 23.9999999,3.87808267 L23.9999999,19.9980826 C24.0002495,20.5748378 23.6697913,21.1006553 23.1499998,21.3505826 L18.2049999,23.7280826 Z" id="Path" fill="#B179F1"></path>
            <path d="M17.2224999,23.8380825 C17.5530204,23.9134968 17.8993404,23.874723 18.2049999,23.7280826 L23.1499998,21.3505826 C23.6697913,21.1006553 24.0002495,20.5748378 24,19.9980826 L24,3.87808267 C24.0002495,3.30132739 23.6697913,2.77550994 23.1499998,2.52558268 L18.2049999,0.148082693 C17.8551143,-0.0201052338 17.453649,-0.0460929445 17.0849999,0.0755826926 C16.8645411,0.149444917 16.6642704,0.273544236 16.5,0.438082691 L8.52999995,9.25308264 L3.87499997,5.43808266 L3.46749998,5.08808267 C3.21874747,4.87539798 2.88166322,4.79789662 2.56499998,4.88058266 C2.51931587,4.89067518 2.47488159,4.90576607 2.43249999,4.92558266 L0.614999996,5.68808266 C0.268168974,5.83128974 0.0306969686,6.15660709 0,6.53058265 C0,6.55558266 0,6.58058266 0,6.60558265 L0,17.2705826 C0,17.2955826 0,17.3205826 0,17.3455826 C0.0306969686,17.7195581 0.268168974,18.0448755 0.614999996,18.1880825 L2.43249999,18.9380825 C2.47488159,18.9578991 2.51931587,18.9729901 2.56499998,18.9830825 C2.88166322,19.0657686 3.21874747,18.9882673 3.46749998,18.7755826 L3.87499997,18.4380826 L8.52999995,14.6230826 L16.5,23.4380825 C16.6986623,23.6363917 16.9489837,23.7749779 17.2224999,23.8380825 L17.2224999,23.8380825 Z M17.9999999,6.85808266 L11.8024999,11.9380826 L17.9999999,17.0180826 L17.9999999,6.85808266 Z M2.99999998,8.50558264 L6.10249996,11.9380826 L2.99999998,15.3705826 L2.99999998,8.50558264 Z" id="Shape" fill-opacity="0.25" fill="url(#linearGradient-1)"></path>
        </g>
    </g>
</svg>